<svg width="70" height="70" viewBox="0 0 70 70" fill="none" xmlns="http://www.w3.org/2000/svg"><rect width="70" height="70" rx="12" fill="#0433FF"/><g clip-path="url(#c)" stroke="#fff" stroke-width="2" stroke-linecap="round" stroke-linejoin="round"><path d="M51.75 51.7002H50.5C49.174 51.7002 47.9023 51.1734 46.9645 50.2357C46.0268 49.2979 45.5 48.0262 45.5 46.7002C45.5 48.0262 44.9732 49.2979 44.0355 50.2357C43.0977 51.1734 41.8261 51.7002 40.5 51.7002C39.1739 51.7002 37.9022 51.1734 36.9645 50.2357C36.0268 49.2979 35.5 48.0262 35.5 46.7002C35.5 48.0262 34.9732 49.2979 34.0355 50.2357C33.0978 51.1734 31.8261 51.7002 30.5 51.7002C29.1739 51.7002 27.9021 51.1734 26.9645 50.2357C26.0268 49.2979 25.5 48.0262 25.5 46.7002C25.5 48.0262 24.9732 49.2979 24.0355 50.2357C23.0979 51.1734 21.8261 51.7002 20.5 51.7002H19.25"/><path d="M43 41.7001C41.7125 40.1347 40.0942 38.874 38.2614 38.0084C36.4287 37.1428 34.4269 36.6938 32.4 36.6938C30.3731 36.6938 28.3714 37.1428 26.5387 38.0084C24.7059 38.874 23.0876 40.1347 21.8 41.7001"/><path d="M34.25 36.8258C34.4 31.1758 36.125 26.0258 39.875 24.1758"/><path d="M32.4 19.4253C34.0206 19.1061 35.7018 19.4209 37.0972 20.3046C38.4926 21.1884 39.4958 22.5738 39.9 24.1753"/><path d="M49.025 25.1007C47.8742 23.8582 46.3097 23.0786 44.625 22.9083C42.94 22.738 41.251 23.1887 39.875 24.1757"/><path d="M30.7 26.8504C31.6796 25.4072 33.1316 24.3505 34.8062 23.8623C36.4808 23.374 38.2732 23.4848 39.875 24.1754C41.4816 24.5683 42.8727 25.5703 43.7543 26.9698C44.6361 28.3692 44.9393 30.0566 44.6001 31.6754"/></g><defs><clipPath id="c"><rect width="35" height="35" fill="#fff" transform="translate(18 18)"/></clipPath></defs></svg>
